<?xml version="1.0" encoding="utf-8"?>
<!-- Generator: Adobe Illustrator 17.0.0, SVG Export Plug-In . SVG Version: 6.00 Build 0)  -->
<!DOCTYPE svg PUBLIC "-//W3C//DTD SVG 1.1//EN" "http://www.w3.org/Graphics/SVG/1.1/DTD/svg11.dtd">
<svg version="1.1" id="Calque_1" xmlns="http://www.w3.org/2000/svg" xmlns:xlink="http://www.w3.org/1999/xlink" x="0px" y="0px"
	 width="55.172px" height="58.621px" viewBox="0 0 55.172 58.621" enable-background="new 0 0 55.172 58.621" xml:space="preserve">
<g>
	<g>
		<path fill="#FFFFFF" d="M46.916,8.119c0.122-0.199,0.464,0.01,0.44-0.464c-0.495-0.667-0.71-1.723-1.637-1.991
			c-1.208-0.349-2.33,0.494-3.331,0.632c-1.952,0.273-4.619,0.117-6.234,0.348c-0.412-0.511-1.276-0.169-1.946,0.007
			c0.115,0.565-0.248,0.592-0.469,1.053c0.256,0.614,0.718,0.879,1.078,1.374c2.062,2.831,2.999,8.048,2.987,11.819
			c-0.025,7.833-5.788,13.538-11.413,16.414c0.206-1.519,1.54-4.004-1.122-4.675c-0.057,0.25-0.234,0.277-0.493,0.148
			c-2.178,2.228-5.887,2.709-8.125,4.11c-3.959,0.959-7.002,3.634-11.153,4.236c-0.612,0.624-0.682,1.282-0.855,1.833
			c0.797,1.27,1.918,1.231,3.13,1.997c2.809,1.781,5.652,3.455,8.872,5.236c3.541,1.959,7.378,4.234,10.092,5.158
			c-0.063-0.549,0.487,0.06,0.536-0.286c-0.065-0.443,0.066-0.995-0.298-0.987c0.095-0.252,0.48,0.04,0.535-0.286
			c-1.147-1.513-0.713-3.866-0.831-5.633c0.525-0.72,2.43-0.82,3.814-1.234c3.609-1.078,7.169-3.203,9.908-5.062
			c0.565-0.384,1.37-1.683,1.772-1.405C50.007,31.859,50.349,16.934,46.916,8.119z M42.613,36.558
			c-0.125,0.186-0.161-0.105-0.41-0.125c-2.132,2.896-5.406,5.047-8.599,6.655c-2.613,1.324-5.774,2.258-9.089,1.874
			c-0.378,0.856-0.498,0.777-0.772,1.559c0.891,1.472,0.876,3.43,0.913,5.36c-5.214-2.518-11.324-5.943-15.752-8.672
			c4.71-2.691,9.869-4.563,14.982-6.511c0.447,0.641-0.065,1.793-0.064,2.672c0.447,1.008,1.352,1.226,2.214,1.569
			c0.004-0.116-0.095-0.178-0.054-0.315c-0.022-0.05-0.036-0.085-0.048-0.108c0.051,0.078,0.232,0.364,0.417,0.369
			c1.286-1.384,2.965-2.032,4.585-2.792c2.512-2.918,5.839-4.972,7.593-8.756c0.76-1.643,1.107-3.625,1.484-5.379
			c1.115-5.229-1.023-11.023-2.441-15.092c2.391-0.102,4.751-0.263,7.044-0.551c1.188,2.322,2.019,5.366,2.217,8.447
			C47.229,23.081,46.293,31.043,42.613,36.558z"/>
	</g>
</g>
</svg>
