<?xml version="1.0" encoding="utf-8"?>
<!-- Generator: Adobe Illustrator 17.0.0, SVG Export Plug-In . SVG Version: 6.00 Build 0)  -->
<!DOCTYPE svg PUBLIC "-//W3C//DTD SVG 1.1//EN" "http://www.w3.org/Graphics/SVG/1.1/DTD/svg11.dtd">
<svg version="1.1" id="Layer_1" xmlns="http://www.w3.org/2000/svg" xmlns:xlink="http://www.w3.org/1999/xlink" x="0px" y="0px"
	 width="455.977px" height="146.993px" viewBox="0 0 455.977 146.993" enable-background="new 0 0 455.977 146.993"
	 xml:space="preserve">
<g id="XMLID_2_">
	<g>
		<path fill="#FFFFFF" d="M414.751,22.134l21.839,0.12c0,0-40.603,55.018-43.918,59.502c-1.077,1.452-2.713,3.018-3.542,4.958
			c-2.097,4.881-4.25,15.584-4.25,15.584l-19.983,0.099c0,0,3.11-11.157,2.982-17.1c-0.113-5.192-2.763-10.377-4.25-15.584
			c-1.502-5.27-3.542-15.584-3.542-15.584h20.542l2.833,11.334L414.751,22.134z"/>
		<path fill="#FFFFFF" d="M373.398,33.737c4.031,2.43,6.503,15.832,6.503,15.832s-21.088,0.312-32.563,0.312
			c-2.678,0-9.917,0-9.917,0l-12.042,52.418h-18.417c0,0,11.461-56.966,14.167-67.294c0.878-3.343,6.007-2.77,14.67-2.77
			c4.257,0,10.342,0,13.834,0C358.565,32.235,369.006,31.094,373.398,33.737z"/>
		<path fill="#FFFFFF" d="M305.013,45.687c2.345,8.458-2.125,28.334-2.125,28.334s-23.34-0.39-36.126,0
			c-3.974,0.12-8.734-0.432-9.917,1.417c-1.665,2.593,0.609,6.581,2.536,8.267c2.217,1.941,6.538,2.16,8.089,2.359
			c10.377,1.318,32.096,0.34,32.096,0.34l-3.761,16.661c0,0-30.693,1.537-46.043-2.125c-3.032-0.723-5.872-2.182-7.792-4.25
			c-0.524-0.567-0.978-1.339-1.473-2.005c-0.397-0.531-1.551-2.281-2.068-3.662c-3.506-9.343,0.411-27.243,4.25-36.835
			c0.446-1.112,1.006-2.522,1.594-3.719c0.737-1.495,1.36-3.181,1.948-4.073c0.397-0.616,0.885-1.013,1.296-1.594
			c0.475-0.687,1.027-1.353,1.537-1.948c1.417-1.643,3.025-2.805,4.958-4.25c6.396-4.788,17.971-8.507,31.876-7.084
			c5.235,0.538,13.14,2.408,17.001,7.792C303.922,40.749,304.432,43.604,305.013,45.687z M287.658,59.266
			c0,0,0.574-3.365-1.948-7.261c-2.153-3.322-4.144-4.094-9.811-4.271c-16.002-0.503-15.69,11.355-15.69,11.355L287.658,59.266z"/>
		<path fill="#FFFFFF" d="M220.541,32.171l17.858-0.106c0,0-9.952,47.212-15.024,70.234c-7.7,0-14.21,0-20.542,0
			c-14.358,0-27.144,1.778-32.584-8.5c-5.277-9.981-0.241-26.393,2.125-37.543c1.672-7.891,5.192-24.02,5.192-24.02l18.502-0.17
			c0,0-5.228,25.111-7.402,37.649c-0.779,4.491-2.387,8.72-0.708,12.042c1.594,3.159,3.825,3.386,10.625,3.542
			c2.153,0.05,9.209,0,9.209,0L220.541,32.171z"/>
		<path fill="#FFFFFF" d="M161.748,39.963c2.04,14.833-5.787,31.203-11.178,45.441c5.497,0.496,10.314-0.078,10.661,0.333
			c0.361,0.531-3.683,16.993-5.093,17.036c-4.363,0.113-18.821,0.234-24.849,0.234c-19.671,0-38.074,1.282-47.46-8.5
			c-3.811-3.974-6.446-10.788-7.084-15.584c-1.063-8.004,0.269-16.816,2.125-24.084c1.679-6.559,3.832-12.75,7.084-18.417
			c8.267-14.429,22.646-25.14,46.751-22.667c4.675,0.482,11.39,2.529,15.584,4.958c0.29,0.17,1.303,0.978,1.537,1.119
			C155.493,23.437,160.657,32.044,161.748,39.963z M136.955,66.172c1.87-6.644,4.597-13.848,4.25-19.834
			c-0.375-6.404-5.745-12.233-9.209-13.459c-10.434-3.683-20.202,1.466-24.084,5.667c-5.022,5.44-6.722,11.794-8.5,20.542
			c-1.325,6.496-2.408,13.353,0,18.417c4.264,8.954,17.56,6.999,31.876,7.084C133.414,78.894,135.17,72.498,136.955,66.172z"/>
		<path fill="#FFFFFF" d="M74.712,32.256c-1.19,5.419-2.38,11.56-3.634,16.916c-6.609,0-13.225,0-19.834,0
			c1.537-5.936,2.713-11.837,4.25-17.001C61.841,32.171,67.742,32.256,74.712,32.256z"/>
		<path fill="#FFFFFF" d="M50.536,54.13c6.375,0,12.75,0,19.126,0c-2.5,13.841-7.452,36.169-11.334,51.71
			c-2.43,9.726-4.052,16.823-10.625,21.959c-0.588,0.46-0.928,0.241-1.417,0.708c-1.211,1.155-6.814,2.493-9.917,2.833
			c-5.043,0.545-10.746,0.071-16.944-0.057c1.622-5.929,3.457-13.048,4.902-18.361c15.109,1.828,15.492-12.453,18.417-26.209
			C44.437,78.767,49.566,57.318,50.536,54.13z"/>
	</g>
	<g>
	</g>
</g>
<path d="M138.018,175.319"/>
</svg>
