<?xml version="1.0" encoding="utf-8"?>
<!-- Generator: Adobe Illustrator 17.0.0, SVG Export Plug-In . SVG Version: 6.00 Build 0)  -->
<!DOCTYPE svg PUBLIC "-//W3C//DTD SVG 1.1//EN" "http://www.w3.org/Graphics/SVG/1.1/DTD/svg11.dtd">
<svg version="1.1" id="Layer_1" xmlns="http://www.w3.org/2000/svg" xmlns:xlink="http://www.w3.org/1999/xlink" x="0px" y="0px"
	 width="56.693px" height="56.693px" viewBox="0 0 56.693 56.693" enable-background="new 0 0 56.693 56.693" xml:space="preserve">
<path fill="#FFFFFF" d="M43.193,11.265c-2.814,0.098-5.27,1.649-7.099,3.795c-2.024,2.352-3.371,5.142-4.342,7.99
	c-1.736-1.423-3.075-3.265-5.86-4.068c-2.153-0.618-4.413-0.363-6.493,1.186c-0.985,0.736-1.663,1.848-1.986,2.893
	c-0.836,2.717,0.878,5.135,1.657,6.003l1.702,1.824c0.351,0.358,1.196,1.29,0.783,2.628c-0.446,1.454-2.199,2.396-3.998,1.841
	c-0.803-0.245-1.957-0.843-1.698-1.686c0.107-0.345,0.353-0.603,0.486-0.9c0.121-0.256,0.179-0.448,0.216-0.561
	c0.329-1.073-0.12-2.468-1.269-2.823c-1.072-0.329-2.169-0.068-2.594,1.312c-0.482,1.568,0.268,4.413,4.287,5.653
	c4.709,1.447,8.692-1.117,9.257-4.461c0.356-2.094-0.59-3.65-2.322-5.652l-1.412-1.561c-0.855-0.854-1.149-2.31-0.264-3.429
	c0.747-0.944,1.81-1.347,3.552-0.873c2.543,0.69,3.676,2.455,5.567,3.877c-0.781,2.561-1.291,5.132-1.753,7.437l-0.282,1.719
	c-1.352,7.091-2.384,10.984-5.065,13.22c-0.54,0.384-1.313,0.959-2.477,0.999c-0.61,0.019-0.807-0.401-0.816-0.584
	c-0.015-0.428,0.347-0.625,0.586-0.818c0.358-0.195,0.9-0.52,0.864-1.558c-0.039-1.227-1.056-2.292-2.525-2.243
	c-1.101,0.038-2.779,1.074-2.716,2.97c0.066,1.959,1.891,3.427,4.644,3.334c1.471-0.05,4.757-0.65,7.996-4.499
	c3.769-4.413,4.823-9.471,5.616-13.174l0.885-4.888c0.492,0.059,1.017,0.098,1.589,0.112c4.694,0.099,7.042-2.333,7.077-4.101
	c0.023-1.07-0.702-2.123-1.718-2.1c-0.727,0.02-1.64,0.504-1.86,1.51c-0.214,0.987,1.494,1.877,0.159,2.741
	c-0.948,0.614-2.648,1.046-5.042,0.695l0.435-2.406c0.888-4.563,1.984-10.175,6.142-10.312c0.303-0.015,1.412,0.014,1.437,0.747
	c0.008,0.245-0.053,0.307-0.34,0.868c-0.292,0.437-0.402,0.809-0.388,1.237c0.04,1.165,0.926,1.931,2.207,1.885
	c1.716-0.055,2.209-1.726,2.181-2.584C48.13,12.446,46.006,11.173,43.193,11.265z"/>
</svg>
