<?xml version="1.0" encoding="utf-8"?>
<!-- Generator: Adobe Illustrator 17.0.0, SVG Export Plug-In . SVG Version: 6.00 Build 0)  -->
<!DOCTYPE svg PUBLIC "-//W3C//DTD SVG 1.1//EN" "http://www.w3.org/Graphics/SVG/1.1/DTD/svg11.dtd">
<svg version="1.1" id="Layer_1" xmlns="http://www.w3.org/2000/svg" xmlns:xlink="http://www.w3.org/1999/xlink" x="0px" y="0px"
	 width="56.693px" height="56.693px" viewBox="0 0 56.693 56.693" enable-background="new 0 0 56.693 56.693" xml:space="preserve">
<g>
	<polygon fill="#FFFFFF" points="28.341,45.503 38.306,42.738 40.524,17.865 16.169,17.865 18.387,42.736 	"/>
	<polygon points="28.347,32.171 32.102,32.171 31.749,36.13 28.347,37.05 28.343,37.05 24.944,36.13 24.72,33.591 21.655,33.591 
		22.093,38.49 28.343,40.224 28.347,40.222 34.6,38.49 35.436,29.122 28.347,29.122 24.319,29.122 24.04,25.999 28.347,25.999 
		35.714,25.999 35.987,22.949 28.347,22.949 20.706,22.949 21.53,32.171 	"/>
	<polygon fill="#FFFFFF" points="30.073,13.53 31.141,15.178 31.166,15.178 32.232,13.53 32.232,15.829 33.777,15.829 33.777,11.19 
		32.16,11.19 31.166,12.819 30.172,11.19 28.557,11.19 28.557,15.829 30.073,15.829 	"/>
	<polygon fill="#FFFFFF" points="24.962,15.829 26.511,15.829 26.511,12.729 27.878,12.729 27.878,11.19 23.597,11.19 
		23.597,12.729 24.962,12.729 	"/>
	<polygon fill="#FFFFFF" points="38.281,15.828 38.281,14.297 36.101,14.297 36.101,11.19 34.551,11.19 34.551,15.828 	"/>
	<polygon fill="#FFFFFF" points="19.954,14.276 21.372,14.276 21.372,15.829 22.923,15.829 22.923,11.19 21.372,11.19 
		21.372,12.724 19.954,12.724 19.954,11.19 18.404,11.19 18.404,15.829 19.954,15.829 	"/>
</g>
</svg>
