<?xml version="1.0" encoding="utf-8"?>
<!-- Generator: Adobe Illustrator 17.0.0, SVG Export Plug-In . SVG Version: 6.00 Build 0)  -->
<!DOCTYPE svg PUBLIC "-//W3C//DTD SVG 1.1//EN" "http://www.w3.org/Graphics/SVG/1.1/DTD/svg11.dtd">
<svg version="1.1" id="Calque_1" xmlns="http://www.w3.org/2000/svg" xmlns:xlink="http://www.w3.org/1999/xlink" x="0px" y="0px"
	 width="400px" height="748.667px" viewBox="0 0 400 748.667" enable-background="new 0 0 400 748.667" xml:space="preserve">
<path fill="#E14B25" d="M111.21,182.268c0-3.312-1.932-26.922-0.345-28.156s18.972-39.316,18.972-39.316l7.451-6.209l0.828-12.418
	l-14.902,13.246l-17.385,41.808l-4.139,32.287L111.21,182.268z"/>
<path fill="#1A1A1A" d="M268.007,185.011c0.476-0.233,0.943-0.513,1.413-0.742C269.421,184.268,268.922,184.483,268.007,185.011"/>
<path fill="#E14B25" d="M123.666,533.2l171.095-5.068l20.904-24.499l10.236-118.849l12.766,16.958l-4.425-49.864l61.686,22.951
	l-56.589-217.166l-4.951-135.277L313.826,3.986l-96.173,23.186l-4.184-1.502l-9.362,5.718l-7.022-4.317l-6.151,1.478l-101.21-18.07
	L70.586,22.072L60.467,175.635L4.763,372.305l73.39-13.497l-1.413,43.413l24.242-19.606L83.897,405.33l21.429,103.738 M149,368.695
	l-25.702,5.374L149,359.816V368.695z M262.743,371.499l7.944-4.673l34.581,12.618L262.743,371.499z"/>
<path fill="#A2CC29" d="M116.931,329.386c-4.777-11.134-9.559-22.709-13.955-34.091c-2.886-4.139-5.556-8.424-7.996-12.842
	c-1.891-3.414-3.655-6.919-5.267-10.483l-0.339-0.038L116.931,329.386"/>
<path fill="#FFFFFF" d="M330.28,210.617c0,69.551-42.276,116.981-92.538,137.983c-11.736,4.904-15.898,22.198-29.207,22.198
	c-16.852,0-13.065-11.013-28.273-18.693c-48.239-24.362-104.598-76.261-104.598-141.488c0-85.79,55.245-160.906,125.555-160.906
	S330.28,124.827,330.28,210.617z"/>
<path fill="#FFFFFF" d="M209.537,66.467"/>
<g>
	<path fill="#020303" d="M81.307,29.949L71.631,181.34L26.205,355.893l66.772-19.395l0.079,44.406l62.035-29.13l3.624,14.963
		l7.598-2.042l12.768-13.3l-5.246-3.299l-1.448-5.457c-14.141-6.524-27.095-12.512-27.095-12.527
		c0,0.056-25.441-38.223-25.441-38.223l-10.705-35.13c-1.212-6.822-2-13.863-2.335-21.067l-26.343,3.34l-3.378-53.09l31.567-0.894
		c1.681-20.222,3.794-35.894,3.794-35.894l16.609-41.601c0,0,2.827-1.962,7.673-4.77l3.615,14.904l29.281-29.164l10.006,0.823
		l-1.281,0.884l-16.045,53.056l44.472-51.707l2.011,0.165l28.972,51.542l14.508-39.713l7.453,14.114l6.741-9.387
		c4.01,11.243,15.206,43.908,21.96,76.297l23.147,0.073l17.455-1.141l-1.448,58.399l-34.71-3.958l-2.694,29.407l-13.457,32.389
		c-6.945,9.712-27.538,35.379-27.538,35.379l-7.464,4.342l-1.114,6.506l-4.364,3.127l16.456,19.575l5.388,1.679l12.487-10.713
		l54.13,21.242l0.076-44.767l58.796,19.415l-52.562-199.363L319.989,29.599l-8.178-7.185l-93.854,17.575l-3.465-1.374l-9.463,7.535
		c0.007,0.007-6.804-6.229-6.804-6.276c-0.049-0.003-5.463,1.194-5.463,1.194c-19.484-3.575-83.034-15.447-101.291-18.83
		L81.307,29.949z"/>
	<polygon fill="#020303" points="250.663,376.197 234.022,350.709 207.833,369.475 182.21,353.362 168.148,372.317 115.655,383.766 
		90.122,404.697 108.436,499.544 310.93,498.208 317.419,400.005 303.166,387.154 	"/>
</g>
<g opacity="0.2">
	<path fill="#020303" d="M119.852,291.888c0,0,25.441,38.278,25.441,38.223c0,0.014,11.483,5.323,24.627,11.389l-24.353-13.525
		l-15.73-37.668l-7.658-44.498l5.795-10.762l-21.151,0.82c0.339,7.143,1.122,14.127,2.324,20.894L119.852,291.888z"/>
	<path fill="#020303" d="M112.452,149.153c0,0-1.72,12.763-3.291,30.112c8.078-0.334,23.781-1.137,23.781-1.137l-8.417-8.946
		l-3.481-19.736l8.684-34.506l1.507-5.525l4.345-5.954c-4.124,2.435-6.518,4.091-6.518,4.091L112.452,149.153z"/>
</g>
<path fill="#1A1A1A" d="M204.649,358.165l0.628-0.389c-1.643-0.751-3.945-1.807-6.673-3.06L204.649,358.165z"/>
<path fill="#FFFFFF" d="M120.152,283.503"/>
<path fill="#1A1A1A" d="M205.277,357.777c1.788,0.817,2.819,1.283,2.819,1.272l1.902-1.107l-2.425-1.586L205.277,357.777z"/>
<polygon opacity="0.2" fill="#020303" points="270.076,118.319 283.305,162.141 286.81,177.876 257.369,178.343 270.921,170.165 
	275.828,159.417 "/>
<polygon opacity="0.2" fill="#020303" points="276.529,300.312 290.314,267.834 293.118,237.926 272.79,235.356 279.332,245.636 
	282.404,261.703 "/>
<polygon fill="#60B5BF" points="205.77,179.373 324.803,177.32 322.234,231.669 205.377,225.497 "/>
<polygon fill="#60B5BF" points="200.255,179.428 82.632,177.261 85.262,231.614 202.34,225.469 "/>
<polyline fill="#FFFFFF" points="210.839,87.789 237.04,135.037 243.624,118.485 236.333,125.628 "/>
<polyline fill="#FFFFFF" points="250.716,95.875 260.406,110.736 266.014,102.325 258.506,105.2 "/>
<path fill="#FFFFFF" d="M87.15,226.921c0,0-0.931-45.792-0.981-45.601l45.221-1.019l-40.825,5.64L87.15,226.921z"/>
<path fill="#FFFFFF" d="M208.285,221.467c0.139-1.182,2.27-35.37,2.27-35.37l42.946-3.829l-46.154-0.517L208.285,221.467z"/>
<polygon fill="#FFFFFF" points="182.925,88.925 169.886,129.905 187.271,86.751 "/>
<polyline fill="#FFFFFF" points="137.598,99.791 141.013,112.519 148.775,104.758 140.703,107.552 "/>
<g>
	<polyline fill="#FFFFFF" points="205.73,50.803 213.616,44.398 215.719,45.099 307.605,28.021 	"/>
	<polyline fill="#FFFFFF" points="80.155,133.771 87.499,36.433 93.351,31.683 188.206,44.223 97.66,41.468 	"/>
	<polyline fill="#FFFFFF" points="66.473,223.104 34.342,348.096 60.628,339.684 41.858,337.489 	"/>
	<polyline fill="#FFFFFF" points="96,345.333 96,374.47 115.608,365.542 100.3,364.959 	"/>
	<polygon fill="#FFFFFF" points="273.024,354.208 319.214,375.173 318.904,368.033 318.283,359.961 313.315,368.343 	"/>
	<polygon fill="#FFFFFF" points="332.874,334.183 376.338,348.775 372.923,334.183 371.06,342.566 	"/>
</g>
<polyline opacity="0.3" fill="#FFFFFF" points="125.012,226.725 156.262,224.622 194.872,221.199 196.081,188.133 176.302,206.587 
	124.488,226.615 "/>
<path opacity="0.3" fill="#FFFFFF" d="M320.016,189.642c0,0-2.208,36.504-1.819,36.504s-39.621-1.559-39.621-1.559l-35.205-2.338
	l57.836-15.972L320.016,189.642z"/>
<polygon fill="#1A1A1A" points="242.905,278.634 220.684,274.844 216.245,269.586 208.067,287.228 235.689,287.524 240.196,287.096 
	239.236,290.292 229.137,331.199 215.039,347.323 207.599,341.246 200.823,347.993 185.567,332.96 182.363,323.17 190.245,328.925 
	187.054,325.913 165.249,307.184 166.3,303.68 204.389,303.165 233.708,302.537 175.146,301.121 172.46,292.915 171.266,289.8 
	175.793,289.892 203.394,287.228 194.281,271.105 187.505,276.246 167.936,281.561 162.328,282.963 163.066,287.739 
	166.173,300.904 163.08,300.829 160.907,307.504 169.15,313.523 176.655,345.327 207.833,362.699 238.589,342.457 247.867,284.02 
	248.602,279.616 "/>
<polygon opacity="0.2" fill="#020303" points="172.083,293.77 175.28,301.756 232.017,302.532 "/>
<polygon opacity="0.2" fill="#FFFFFF" points="149.577,413.862 139.413,421.222 135.908,418.418 141.516,496.226 142.969,496.146 
	140.713,426.132 "/>
<g opacity="0.7">
	<polygon opacity="0.2" fill="#020303" points="193.638,262.577 198.72,265.556 204.153,267.834 210.286,265.03 215.018,262.752 
		222.378,263.278 221.627,263.431 231.316,262.927 213.791,260.299 207.307,263.102 199.188,262.932 193.288,260.299 
		178.217,263.803 188.298,263.17 	"/>
</g>
<polygon opacity="0.2" fill="#020303" points="198.72,265.556 193.638,262.577 185.752,263.453 193.989,264.855 204.503,270.463 
	214.668,264.855 222.378,263.278 215.018,262.752 210.286,265.03 204.153,267.834 "/>
<polygon opacity="0.3" fill="#020303" points="304.458,379.451 324.695,392.327 324.444,399.509 297.324,378.041 "/>
<polygon opacity="0.3" fill="#020303" points="124.884,374.069 131.427,372.667 98.014,387.154 103.154,380.612 "/>
<polygon fill="#E14B25" points="320.746,741.961 313.507,720.242 291.788,718.07 263.872,711.293 272.138,659.606 275.75,651.083 
	275.415,639.109 293.236,527.669 123.424,532.476 154.695,650.716 153.5,659.333 159.189,667.712 177.167,710.333 141.205,715.899 
	122.942,715.396 119.563,745.319 218,740.583 218,731.833 220.25,738.333 "/>
<polyline fill="#020303" points="132.829,497.674 169.322,648.662 168.213,657.502 173.914,667.66 185.685,716.361 132.114,733.736 
	214.875,732.958 211.476,713.827 213.197,658.444 210.203,653.136 213,644.448 213,594.736 223.715,650.239 226.177,714.732 
	222.938,733.896 275.353,729.302 256.536,719.257 263.392,660.445 267.615,651.188 266.422,639.297 286.692,497.674 "/>
<polyline fill="#020303" points="109.126,502.069 134.043,529.097 200.164,529.58 292.348,522.823 311.171,498.208 108.583,497.545 
	"/>
<polygon opacity="0.2" fill="#FFFFFF" points="270.75,493.11 178.807,474.197 183.332,471.663 186.409,469.129 269.302,481.798 "/>
<polygon fill="#FFFFFF" points="256.633,719.257 224.779,733.736 255.185,733.253 310.658,736.451 308.439,726.758 298.14,726.496 
	"/>
<polygon fill="#FFFFFF" points="213.146,732.979 185.202,716.361 139.834,725.048 128.897,725.31 128.733,737.597 178.445,733.253 
	"/>
<polygon opacity="0.2" fill="#020303" points="224.708,733.75 256.633,719.257 260.977,720.343 230.812,733.646 "/>
<polygon opacity="0.2" fill="#020303" points="185.625,716.333 214.75,732.958 207.833,733.021 182.312,716.896 "/>
<polyline fill="#FFFFFF" points="148.509,485.022 176.314,487.331 174.191,468.139 156.41,460.684 142.09,468.019 130.419,472.272 
	116.765,473.475 104.201,471.847 105.483,479.665 112.638,482.156 137.165,483.663 142.678,484.422 "/>
<polyline fill="#FFFFFF" points="152.665,488.643 180.557,488.187 177.114,472.997 158.864,468.501 145.088,475.562 
	133.742,479.934 120.206,482.029 107.564,481.767 109.381,487.92 121.658,489.577 141.257,488.495 146.807,488.646 "/>
<polyline fill="#FFFFFF" points="147.463,478.812 175.106,482.889 173.876,463.579 156.476,454.999 141.845,461.417 
	130.001,464.923 116.318,465.256 103.856,462.83 104.772,470.722 116.673,474.808 136.205,476.733 141.672,477.842 "/>
<polyline fill="#FFFFFF" points="145.582,474.761 173.495,483.57 174.185,464.095 156.203,452.916 142.566,457.208 129.092,457.908 
	115.039,455.893 102.693,451.795 102.656,459.365 110.488,462.829 116.359,465.426 134.925,468.566 139.746,472.799 "/>
<path opacity="0.3" fill="#020303" d="M145.98,462.681"/>
<path fill="#E14B25" d="M188.664,466.001c-0.56-0.335-14.8-6.156-14.8-6.156l-8.536,32.676l14.723,0.905L188.664,466.001z"/>
<polygon opacity="0.1" fill="#020303" points="114.753,482.079 119.628,489.405 109.594,488.041 107.757,481.906 105.698,479.97 
	104.313,471.666 104.893,470.602 104.081,462.768 102.818,459.182 102.788,451.448 115.021,455.49 115.423,464.684 114.168,472.951 
	"/>
<polyline fill="#FFFFFF" points="159.859,455.183 142.066,443.187 141.954,450.183 142.034,455.044 145.266,455.888 
	150.985,456.856 "/>
<polygon fill="#020303" points="110.936,463.066 117.769,465.08 123.47,465.939 117.814,465.555 110.393,464.084 "/>
<path fill="#020303" stroke="#FFFFFF" stroke-miterlimit="10" d="M286.074,454.771"/>
<polygon fill="#020303" points="246.3,489.955 137.648,526.227 127.01,495.55 233.345,459.778 "/>
<polygon opacity="0.5" fill="#020303" points="269.698,509.175 177.291,498.443 177.777,509.706 "/>
<polygon opacity="0.2" fill="#FFFFFF" points="130.755,495.916 230.299,462.885 239.62,489.491 223.24,470.577 142.066,504.241 "/>
<polyline fill="#FFFFFF" points="296.622,473.745 274.123,478.103 254.862,479.094 247.048,458.812 262.68,450.741 268.829,444.251 
	271.361,438.968 285.651,435.475 283.592,441.115 279.276,443.333 279.519,442.66 282.892,446.421 294.971,444.21 296.544,450.949 
	288.115,452.169 287.69,454.109 298.246,453.741 298.745,460.072 288.347,462.614 288.187,464.218 299.985,462.664 300.578,469.329 
	288.647,472.052 288.656,474.013 301.589,472.633 "/>
<polygon fill="#020303" points="276.542,435.042 269.302,507.115 297.536,511.119 308.034,431.483 "/>
<polygon opacity="0.2" fill="#020303" points="284.075,437.179 272.379,478.541 266.949,478.45 269.198,435.348 "/>
<path fill="#E14B25" d="M242.413,493.869c0.741-0.09,19.522-5.012,19.522-5.012l-17.256-37.339l-14.726,7.657L242.413,493.869z"/>
<polygon opacity="0.2" fill="#020303" points="127.225,493.472 224.658,453.624 230.027,463.277 130.845,495.554 "/>
<polygon opacity="0.2" fill="#FFFFFF" points="271.634,411.839 281.209,419.951 284.917,417.422 274.732,487.349 270.629,492.899 
	279.539,424.748 "/>
<polygon fill="#E14B25" points="123.845,532.832 204.367,506.205 141.275,532.438 "/>
<polygon fill="#E14B25" points="283.6,526.503 228.941,516.187 297.174,522.159 "/>
<polygon opacity="0.3" fill="#020303" points="257.477,479.084 247.764,458.27 251.444,456.339 259.951,478.963 "/>
<polyline opacity="0.3" fill="#020303" points="173.619,461.887 168.106,481.508 161.637,483.907 169.603,459.426 "/>
<polyline opacity="0.2" fill="#020303" points="145.266,455.888 145.505,433.836 140.98,433.293 141.342,456.279 "/>
<polygon opacity="0.3" fill="#020303" points="282.667,526.5 293,528.167 292.167,533.5 281.667,533 "/>
<polygon opacity="0.3" fill="#020303" points="123.667,533.167 131.324,537.667 141.167,532.5 142.333,536.833 131.333,541 
	124.667,537.667 "/>
</svg>
